# xmcd
#
# Track frame offsets:
#	150
#	14704
#	27949
#	49505
#	62454
#	82209
#	98613
#	114948
#	130315
#	148308
#	166613
#	178469
#	196186
#	210724
#	229607
#	244383
#	257670
#	273940
#	293177
#	316509
#	332739
#	343377
#
# Disc length: 4782 seconds
#
# Revision: 0
# Processed by: cddbd v1.5.2PL0 Copyright (c) Steve Scherf et al.
# Submitted via: EasyCDDAExtractor 2010.6.0.0
#
DISCID=4412ac16
DTITLE=Various Artist - The Best of Disco Hits 70-80's Vol.1 Disk 2
DYEAR=2005
DGENRE=Disco
TTITLE0=El Passador - Amada Mio Amore Mio
TTITLE1=Baccara - Cara Mia
TTITLE2=Black - Wonderful Life
TTITLE3=Al Bano and Romina Power - Prima Notte D'Amore
TTITLE4=La Bionda - Bandido
TTITLE5=Righiera - Vamos a la Playa
TTITLE6=Bananarama - Venus
TTITLE7=F.R. David - Words
TTITLE8=Aneka - Ooh Shooby Doo Doo Lang
TTITLE9=A'La Carte - Ring Me Honey
TTITLE10=Doris D and Pins - The Marvelous Marionettes
TTITLE11=Toto Cutugno - L'Italiano
TTITLE12=Smokie - I'll Meet You at Midnight
TTITLE13=Amanda Lear - Queen of Chinatown
TTITLE14=Veronica Unlimited - What a Lousy Party
TTITLE15=Snoopy - Down the Bayou
TTITLE16=Chilly - Springtime
TTITLE17=Pussycat - Rio
TTITLE18=Fantastique - Maria No Mas
TTITLE19=Pam'n'Pat - It's All Music (Ex. Ottawan)
TTITLE20=Jason Donovan - Sealed With a Kiss
TTITLE21=Chris de Burgh - Moonlight in Vodka
EXTD=
EXTT0=
EXTT1=
EXTT2=
EXTT3=
EXTT4=
EXTT5=
EXTT6=
EXTT7=
EXTT8=
EXTT9=
EXTT10=
EXTT11=
EXTT12=
EXTT13=
EXTT14=
EXTT15=
EXTT16=
EXTT17=
EXTT18=
EXTT19=
EXTT20=
EXTT21=
PLAYORDER=
